<mxfile host="65bd71144e">
    <diagram id="juSUowMxFHuagqv6TTTQ" name="Page-1">
        <mxGraphModel dx="719" dy="1786" grid="1" gridSize="10" guides="1" tooltips="1" connect="1" arrows="1" fold="1" page="1" pageScale="1" pageWidth="827" pageHeight="1169" math="0" shadow="0">
            <root>
                <mxCell id="0"/>
                <mxCell id="1" parent="0"/>
                <mxCell id="3" style="edgeStyle=none;html=1;exitX=0;exitY=0;exitDx=0;exitDy=0;endArrow=none;endFill=0;endSize=13;targetPerimeterSpacing=5;entryX=1;entryY=0;entryDx=0;entryDy=0;" parent="1" source="4" target="15" edge="1">
                    <mxGeometry relative="1" as="geometry">
                        <mxPoint x="320" y="-220" as="targetPoint"/>
                    </mxGeometry>
                </mxCell>
                <mxCell id="4" value="class" style="swimlane;fontStyle=0;childLayout=stackLayout;horizontal=1;startSize=26;horizontalStack=0;resizeParent=1;resizeParentMax=0;resizeLast=0;collapsible=1;marginBottom=0;rounded=0;shadow=0;glass=0;comic=0;sketch=0;verticalAlign=top;" parent="1" vertex="1">
                    <mxGeometry x="440" y="-220" width="150" height="130" as="geometry"/>
                </mxCell>
                <mxCell id="5" value="fun" style="swimlane;fontStyle=0;childLayout=stackLayout;horizontal=1;startSize=0;horizontalStack=0;resizeParent=1;resizeParentMax=0;resizeLast=0;collapsible=0;marginBottom=0;rounded=0;shadow=0;glass=0;comic=0;sketch=0;verticalAlign=top;swimlaneLine=0;swimlaneFillColor=none;fillColor=none;noLabel=1;overflow=visible;portConstraintRotation=0;snapToPoint=0;fixDash=0;perimeter=rectanglePerimeter;dropTarget=1;expand=0;deletable=1;" parent="4" vertex="1">
                    <mxGeometry y="26" width="150" height="104" as="geometry"/>
                </mxCell>
                <mxCell id="6" value="-variables:var" style="text;strokeColor=none;fillColor=none;align=left;verticalAlign=top;spacingLeft=4;spacingRight=4;overflow=hidden;rotatable=0;points=[[0,0.5],[1,0.5]];portConstraint=eastwest;" parent="5" vertex="1">
                    <mxGeometry width="150" height="26" as="geometry"/>
                </mxCell>
                <mxCell id="7" value="-staticVar:var = default" style="text;strokeColor=none;fillColor=none;align=left;verticalAlign=top;spacingLeft=4;spacingRight=4;overflow=hidden;rotatable=0;points=[[0,0.5],[1,0.5]];portConstraint=eastwest;fontStyle=4" parent="5" vertex="1">
                    <mxGeometry y="26" width="150" height="26" as="geometry"/>
                </mxCell>
                <mxCell id="8" value="fun" style="swimlane;fontStyle=0;childLayout=stackLayout;horizontal=1;startSize=0;horizontalStack=0;resizeParent=1;resizeParentMax=0;resizeLast=0;collapsible=0;marginBottom=0;rounded=0;shadow=0;glass=0;comic=0;sketch=0;verticalAlign=top;swimlaneLine=0;swimlaneFillColor=none;fillColor=none;noLabel=1;overflow=visible;portConstraintRotation=0;snapToPoint=0;fixDash=0;perimeter=rectanglePerimeter;dropTarget=1;expand=0;deletable=1;" parent="5" vertex="1">
                    <mxGeometry y="52" width="150" height="52" as="geometry"/>
                </mxCell>
                <mxCell id="9" value="+func(args):return&#10;" style="text;strokeColor=none;fillColor=none;align=left;verticalAlign=top;spacingLeft=4;spacingRight=4;overflow=hidden;rotatable=0;points=[[0,0.5],[1,0.5]];portConstraint=eastwest;" parent="8" vertex="1">
                    <mxGeometry width="150" height="26" as="geometry"/>
                </mxCell>
                <mxCell id="10" value="+staticFun(args):return" style="text;strokeColor=none;fillColor=none;align=left;verticalAlign=top;spacingLeft=4;spacingRight=4;overflow=hidden;rotatable=0;points=[[0,0.5],[1,0.5]];portConstraint=eastwest;fontStyle=4" parent="8" vertex="1">
                    <mxGeometry y="26" width="150" height="26" as="geometry"/>
                </mxCell>
                <mxCell id="11" style="edgeStyle=orthogonalEdgeStyle;html=1;exitX=1;exitY=0.5;exitDx=0;exitDy=0;endArrow=none;endFill=0;endSize=18;targetPerimeterSpacing=5;elbow=vertical;jumpStyle=none;sketch=0;jumpSize=6;shadow=0;rounded=0;" parent="4" source="6" edge="1">
                    <mxGeometry relative="1" as="geometry">
                        <mxPoint x="120" y="1" as="targetPoint"/>
                        <Array as="points">
                            <mxPoint x="200" y="39"/>
                            <mxPoint x="200" y="-40"/>
                            <mxPoint x="120" y="-40"/>
                        </Array>
                    </mxGeometry>
                </mxCell>
                <mxCell id="12" value="copy needed stuff" style="text;fillColor=none;align=left;verticalAlign=top;spacingLeft=4;spacingRight=4;overflow=hidden;rotatable=0;points=[[0,0.5],[1,0.5]];portConstraint=eastwest;rounded=0;shadow=0;glass=0;comic=0;sketch=0;startSize=0;fontSize=15;strokeColor=#f0f0f0;" parent="1" vertex="1">
                    <mxGeometry x="315" y="-310" width="130" height="26" as="geometry"/>
                </mxCell>
                <mxCell id="13" value="throw exeption" style="shape=note;whiteSpace=wrap;html=1;backgroundOutline=1;darkOpacity=0.05;rounded=0;shadow=0;glass=0;comic=0;sketch=0;startSize=0;strokeColor=#f0f0f0;fillColor=none;gradientColor=none;verticalAlign=top;size=17;align=left;" parent="1" vertex="1">
                    <mxGeometry x="680" y="-80" width="110" height="25" as="geometry"/>
                </mxCell>
                <mxCell id="14" value="" style="endArrow=none;html=1;startSize=0;exitX=1;exitY=0.5;exitDx=0;exitDy=0;dashed=1;" parent="1" source="10" target="13" edge="1">
                    <mxGeometry width="50" height="50" relative="1" as="geometry">
                        <mxPoint x="580" y="-50" as="sourcePoint"/>
                        <mxPoint x="630" y="-100" as="targetPoint"/>
                    </mxGeometry>
                </mxCell>
                <mxCell id="15" value="class" style="swimlane;fontStyle=0;childLayout=stackLayout;horizontal=1;startSize=26;horizontalStack=0;resizeParent=1;resizeParentMax=0;resizeLast=0;collapsible=1;marginBottom=0;rounded=0;shadow=0;glass=0;comic=0;sketch=0;verticalAlign=top;" parent="1" vertex="1">
                    <mxGeometry x="150" y="-220" width="150" height="130" as="geometry"/>
                </mxCell>
                <mxCell id="16" value="fun" style="swimlane;fontStyle=0;childLayout=stackLayout;horizontal=1;startSize=0;horizontalStack=0;resizeParent=1;resizeParentMax=0;resizeLast=0;collapsible=0;marginBottom=0;rounded=0;shadow=0;glass=0;comic=0;sketch=0;verticalAlign=top;swimlaneLine=0;swimlaneFillColor=none;fillColor=none;noLabel=1;overflow=visible;portConstraintRotation=0;snapToPoint=0;fixDash=0;perimeter=rectanglePerimeter;dropTarget=1;expand=0;deletable=1;" parent="15" vertex="1">
                    <mxGeometry y="26" width="150" height="104" as="geometry"/>
                </mxCell>
                <mxCell id="17" value="-variables:var" style="text;strokeColor=none;fillColor=none;align=left;verticalAlign=top;spacingLeft=4;spacingRight=4;overflow=hidden;rotatable=0;points=[[0,0.5],[1,0.5]];portConstraint=eastwest;" parent="16" vertex="1">
                    <mxGeometry width="150" height="26" as="geometry"/>
                </mxCell>
                <mxCell id="18" value="-staticVar:var = default" style="text;strokeColor=none;fillColor=none;align=left;verticalAlign=top;spacingLeft=4;spacingRight=4;overflow=hidden;rotatable=0;points=[[0,0.5],[1,0.5]];portConstraint=eastwest;fontStyle=4" parent="16" vertex="1">
                    <mxGeometry y="26" width="150" height="26" as="geometry"/>
                </mxCell>
                <mxCell id="19" value="fun" style="swimlane;fontStyle=0;childLayout=stackLayout;horizontal=1;startSize=0;horizontalStack=0;resizeParent=1;resizeParentMax=0;resizeLast=0;collapsible=0;marginBottom=0;rounded=0;shadow=0;glass=0;comic=0;sketch=0;verticalAlign=top;swimlaneLine=0;swimlaneFillColor=none;fillColor=none;noLabel=1;overflow=visible;portConstraintRotation=0;snapToPoint=0;fixDash=0;perimeter=rectanglePerimeter;dropTarget=1;expand=0;deletable=1;" parent="16" vertex="1">
                    <mxGeometry y="52" width="150" height="52" as="geometry"/>
                </mxCell>
                <mxCell id="20" value="+func(args):return&#10;" style="text;strokeColor=none;fillColor=none;align=left;verticalAlign=top;spacingLeft=4;spacingRight=4;overflow=hidden;rotatable=0;points=[[0,0.5],[1,0.5]];portConstraint=eastwest;" parent="19" vertex="1">
                    <mxGeometry width="150" height="26" as="geometry"/>
                </mxCell>
                <mxCell id="21" value="+staticFun(args):return" style="text;strokeColor=none;fillColor=none;align=left;verticalAlign=top;spacingLeft=4;spacingRight=4;overflow=hidden;rotatable=0;points=[[0,0.5],[1,0.5]];portConstraint=eastwest;fontStyle=4" parent="19" vertex="1">
                    <mxGeometry y="26" width="150" height="26" as="geometry"/>
                </mxCell>
                <mxCell id="22" style="edgeStyle=none;html=1;exitX=0;exitY=0.5;exitDx=0;exitDy=0;endArrow=block;endFill=0;endSize=15;entryX=1;entryY=0.5;entryDx=0;entryDy=0;" parent="1" source="6" target="17" edge="1">
                    <mxGeometry relative="1" as="geometry"/>
                </mxCell>
                <mxCell id="23" value="ירושה&lt;br&gt;" style="text;html=1;strokeColor=none;fillColor=none;align=center;verticalAlign=middle;whiteSpace=wrap;rounded=0;shadow=0;glass=0;comic=0;sketch=0;startSize=0;" parent="1" vertex="1">
                    <mxGeometry x="342" y="-203" width="40" height="20" as="geometry"/>
                </mxCell>
                <mxCell id="24" value="קשר דו כיווני" style="text;html=1;strokeColor=none;fillColor=none;align=center;verticalAlign=middle;whiteSpace=wrap;rounded=0;shadow=0;glass=0;comic=0;sketch=0;startSize=0;" parent="1" vertex="1">
                    <mxGeometry x="327" y="-244" width="70" height="20" as="geometry"/>
                </mxCell>
                <mxCell id="25" style="edgeStyle=none;html=1;endArrow=block;endFill=0;endSize=15;targetPerimeterSpacing=5;dashed=1;" parent="1" edge="1">
                    <mxGeometry relative="1" as="geometry">
                        <mxPoint x="440" y="-140" as="sourcePoint"/>
                        <mxPoint x="300" y="-140" as="targetPoint"/>
                    </mxGeometry>
                </mxCell>
                <mxCell id="26" value="מימוש ממשק" style="text;html=1;align=center;verticalAlign=middle;resizable=0;points=[];autosize=1;strokeColor=none;" parent="1" vertex="1">
                    <mxGeometry x="330" y="-160" width="80" height="20" as="geometry"/>
                </mxCell>
                <mxCell id="27" style="edgeStyle=none;html=1;exitX=0;exitY=0.5;exitDx=0;exitDy=0;entryX=1;entryY=0.5;entryDx=0;entryDy=0;endArrow=diamondThin;endFill=0;endSize=16;targetPerimeterSpacing=5;" parent="1" source="10" target="21" edge="1">
                    <mxGeometry relative="1" as="geometry"/>
                </mxCell>
                <mxCell id="28" value="יחס הכלה חלש" style="text;html=1;align=center;verticalAlign=middle;resizable=0;points=[];autosize=1;strokeColor=none;" parent="1" vertex="1">
                    <mxGeometry x="335" y="-120" width="90" height="20" as="geometry"/>
                </mxCell>
                <mxCell id="29" style="edgeStyle=none;html=1;exitX=0;exitY=0.5;exitDx=0;exitDy=0;entryX=1;entryY=0.5;entryDx=0;entryDy=0;endArrow=diamondThin;endFill=1;endSize=15;targetPerimeterSpacing=5;" parent="1" edge="1">
                    <mxGeometry relative="1" as="geometry">
                        <mxPoint x="440" y="-60" as="sourcePoint"/>
                        <mxPoint x="300" y="-60" as="targetPoint"/>
                    </mxGeometry>
                </mxCell>
                <mxCell id="30" value="יחס הכלה חזק" style="text;html=1;align=center;verticalAlign=middle;resizable=0;points=[];autosize=1;strokeColor=none;" parent="1" vertex="1">
                    <mxGeometry x="340" y="-90" width="80" height="20" as="geometry"/>
                </mxCell>
                <mxCell id="31" value="1" style="text;html=1;strokeColor=none;fillColor=none;align=center;verticalAlign=middle;whiteSpace=wrap;rounded=0;shadow=0;glass=0;comic=0;sketch=0;startSize=0;" parent="1" vertex="1">
                    <mxGeometry x="590" y="-200" width="40" height="20" as="geometry"/>
                </mxCell>
                <mxCell id="32" value="*" style="text;html=1;strokeColor=none;fillColor=none;align=center;verticalAlign=middle;whiteSpace=wrap;rounded=0;shadow=0;glass=0;comic=0;sketch=0;startSize=0;" parent="1" vertex="1">
                    <mxGeometry x="530" y="-244" width="40" height="20" as="geometry"/>
                </mxCell>
                <mxCell id="33" value="type" style="text;strokeColor=none;fillColor=none;align=left;verticalAlign=top;spacingLeft=4;spacingRight=4;overflow=hidden;rotatable=0;points=[[0,0.5],[1,0.5]];portConstraint=eastwest;" parent="1" vertex="1">
                    <mxGeometry x="50" y="-260" width="140" height="26" as="geometry"/>
                </mxCell>
                <mxCell id="34" style="edgeStyle=orthogonalEdgeStyle;rounded=0;sketch=0;jumpStyle=none;jumpSize=6;html=1;exitX=0.5;exitY=1;exitDx=0;exitDy=0;entryX=0.511;entryY=-0.012;entryDx=0;entryDy=0;entryPerimeter=0;shadow=0;dashed=1;fontSize=15;endArrow=block;endFill=0;endSize=18;targetPerimeterSpacing=5;" parent="1" source="35" target="33" edge="1">
                    <mxGeometry relative="1" as="geometry"/>
                </mxCell>
                <mxCell id="35" value="this is the box inside class" style="text;html=1;strokeColor=none;fillColor=none;align=center;verticalAlign=middle;whiteSpace=wrap;rounded=0;shadow=0;glass=0;comic=0;sketch=0;fontSize=15;startSize=0;" parent="1" vertex="1">
                    <mxGeometry x="71" y="-340" width="100" height="20" as="geometry"/>
                </mxCell>
                <mxCell id="36" value="" style="shape=image;verticalLabelPosition=bottom;labelBackgroundColor=#ffffff;verticalAlign=top;aspect=fixed;imageAspect=0;image=data:image/png,iVBORw0KGgoAAAANSUhEUgAAAQYAAADwCAYAAADiicqMAAAgAElEQVR4Ae1dB5AUx9UWiChMTiZTCJARGYGwETkng2SSCgQlQJJJAiMRbErkaEA6QGSTCmSRRZkcjmzASJgoES2QSCKZDMak/usb/6/VOzN7t3u3d7s3+3XVXM/2dL9+83W/b7pf99y8oBiIABEgAjYEXrD95k8iQASIgCIxsBMQASLgQIDE4ICECUSACJAY2AeIABFwIEBicEDCBCJABEgM7ANEgAg4ECAxOCBhAhEgAiQG9gEiQAQcCJAYHJAwgQgQARID+wARIAIOBEgMDkiYQASIAImBfYAIEAEHAiQGByRMIAJEgMTAPkAEiIADARKDAxImEAEiQGJgHyACRMCBAInBAQkTiAARIDGwDxABIuBAgMTggIQJRIAIkBjYB4gAEXAgkGKJ4fvvv1fFixdX+fPnV9myZVOZMmWyzl977TXVrFkz9eGHH6r9+/c7bjiYhOfPn6v27dtbcocNGxZMUeYlAikagRRLDMePH1cvvPBCvEeFChXUnj17EtRIu3fv1vJffPFFdePGjQTJCWWhx48fq1WrVqkTJ06EUixlEQEfBDxDDBUrVlQ48uXLp1KnTq0NGuSBEcW3337rc+OB/Lh69apKly6dJatIkSLq2bNngRRLsjxr1qxRefLksfSZM2dOktVDwUTAE8RQrlw5n5a8cuWKGj16tEqfPr0miEqVKvnkCfQHRiZTp05Vly5dCrRIkuWbMGGCvh8SQ5LBTMFKpdx/H29OJezEIC27ePFibUiYCty/f18upciYxJAimy1FKu3JEYO0BJyH2bNn1+Swa9cuNXfuXNWzZ0/LOXnr1i119uxZBYNr3LixAsE0b95cHTp0yMqDfHJMnz5dxKoPPvhAde7c2TrOnTun0+0nkCv5Tp8+rS/jfOTIkapt27ZWnWXLllWtWrVS48ePV9evX9f55OT27duWHtWqVdP3UrlyZa0bdPSnx7Jly1SvXr0UysIx26FDBzVq1Ch14cIFEc+YCDgQ8DQx4G6LFSumjWnfvn2WMYrTcsWKFXrOLmlY5YDRyG+JmzZtqsGDQUv64MGDdbp5Akel+CcyZ86s7ty5Y13u0aOHwwcishDnzJlTbdq0yRSlLl68qOsz85rnq1evdpRp2LCh33LQafLkyT5l+IMICAKeJoabN2/6GCGevKZRi2GBPOrWrWsZ8ogRI6ynNtJy5cqlDcskBow8pGzhwoUVRib2AKOTPHhiS+jXr59OB3GUKlXKOtKkSaPTCxQooB48eCBFLH3q16+vSpQoofOgHNLk2Lt3r85/9+5dVahQIZ0XS7l16tRRjRo1UtBX9EI8e/ZsXY4nREAQSD5ieP5IbVkZqzrEbHYc70w9rPY8FpUCi+PzMcBYW7durY0AxoZgJwY8wZ8+fWpdw9TCNEjslRAjMokBmTH8l2uxsbFWefMPpiW4nipVKnXq1Cl96dq1awq6TJs2TT158kSnY9WkaNGiWuaUKVP0NTkJ1MfQvXt3LQejBtNxinsdM2aMvp4lSxZ1+fJlqYIxEbAQSFZi2LR0k2ozYaPziDmodiWCGLDR6dixYwqGjD0LeAqWKVNGd34YqBiaSQzly5ePcwkyLmKYOXOmlo95uxkOHDigr8F3YQ9uIwzk+eKLL3S5bt262YtZvhAhI3+rEvCPgIyQDyOMe/fuOeQgARu3RNbChQtd8zAxehHwBDFIB/cXY5ogxmgSQ3zD6LiIASscWbNmtYwrY8aM2oeArmQ+sdevX++3d8EPgU1U8+fPV5MmTVIm2eBJbw+BjBiwtCo4DB061BoBYRRkP5YuXarzDRw40F4Vf0c5Ap4mhhw5clie/ocPH+pmNokBRhlXiIsYUK5Pnz7auIRkUBc2VME4S5YsqQnJrAdDe4wI0qZNq8uLMUuMFQR7CIQYIFdkBBpj9BB/eKaubZ2kPurTx7pv3PvPx0dq7Oof4hfBHCkGAU8QQ4YMGVTv3r1Vly5dFJ5+M2bMUBs2bPB5ikuLmMRw+PBhSXaN4yMG+A5k2I7lQARzOiDTF1P4wYMH9UgDhovycBRi+RErEmLMCSWGWrVqaRkiK764f//+pop+zp+p84s+ULWqVbOWPnG/Px81VPtp3/kpx+SUiIAniMHfBie3BgklMUC+uSQIooD3H4aI5UCsDpgBo4m8efNqw61Xr57lG5E88AeIESeUGJo0aaJlgCDPnz8f7/Ho0SNRgTERsBBIVmLYumqbendKrOPoPOOo2pcI52M4ieFvf/ubNsR27drpEQRGMPawYMECnbdq1arKbpDBEMOsWbPs4q3fePoLuUycONE1DxOJQHwIJB8xxKdJkNfjW670Jy7UIwYs/+EFKzFGxJgemDsdRRe8Ci75xCch1xAHQwzYOekWTPIBYZpLom75mUYE3BAgMbih8v9p8fkYpOi4ceO0wcPwMZx3C0OGDNH5+vbt68gCYxfiePnllx3XzXc/ateu7biOBGypljcwIWvQoEGuDtAjR45YW79dhTAx6hEgMcTRBQIlBhij+SYnHJ9uYe3atdrw8Q4HlihhoFjSxDRESAExRh3YuWkGjELE2Yk88GdghIDRB97JkI1ay5cv95EFh+S8efPU9u3b1aJFi1TXrl0VXiorXbo0RxQmwDzXCJAYNBTOk0CJASU7depkGeMrr7zi+oQW6Q0aNPAxWpMMsHUZ5SXNbXPU+++/r69LPolPnjwp1agBAwb4kIjkscdbt27VZXhCBAQBTxBDlSpV5H7ijYPxMZgvU7355ptxysa/kYPRff7553Hmw7brjh07+hg3lltr1qxp/VcmjBJeffVV63ru3Lkdsv7zn/8obOM2Rw6oF5ustmzZ4pMf73RgdQOjA5MQ8L4E7gcjCAYi4IZAiiUGt5sJdxoMzXzXIi59QBDYYIWnvEwBzPxIx9ug/gLe1sQ+DOyLcHtV2ywHMsFWabyPYV9CNfPxnAgIAiQGQYIxESACGgESg4aCJ0SACAgCJAZBgjERIAIaARKDhoInRIAICAIkBkGCMREgAhoBEoOGgidEgAgIAiQGQYIxESACGgESg4aCJ0SACAgCJAZBgjERIAIaARKDhoInRIAICAIkBkGCMREgAhoBEoOGgidEgAgIAiQGQYIxESACGgESg4aCJ0SACAgCJAZBgjERIAIaARKDhoInRIAICAIkBkGCMREgAhoBEoOGgidEgAgIAiQGQYIxESACGgESg4aCJ0SACAgCJAZBgjERIAIaARKDhoInRIAICAIkBkGCMREgAhoBEoOGgidEgAgIAiQGQSLAGB+CmTJlinV8/fXXAZb6XzZ8+GXatGlWWXzHkoEIRCoCKZYY8F3J4sWLq/z586ts2bIpfPcR5/gkW7NmzRQ+OY/PxoU64KOw8rk3f5+i91fn8ePHdVl/n7x7/vy5at++vXUvw4YN8yeK6UQgSRFIscRgGpkYqltcoUIFtWfPnpCBmNTEgM/WyX3gm5M3btwIme4URAQCRcAzxFCxYkWFI1++fCp16tTauGBkGFHgu42hCElNDFevXlXp0qWz9C9SpIh69uxZKNSmDCIQFAKeIIZy5cr53PSVK1fU6NGjVfr06TVBVKpUySdPQn8kNTFAL4yGpk6dqi5dupRQNVmOCCQKAU8SgyCyePFiTQwYlt+/f18uJThODmJIsHIsSARChICniQGOvOzZs2ty2LVrlwVbbGys6tmzp3V88803rlBu27ZN58G8X4JJDEOHDlVz585VHTp0UBi1NG3aVA0aNEjt2LFDsvvEpl/E7nzE5+lFJ4mnT5/uU978Ad8DriNv7dq1FXwpHTt2VDExMerChQtm1qDPt27dqtavX69u374ddFkW8AYCniYGNFGxYsU0Mezbt89qteHDh+u0L7/80rUlP/vsM51n5syZOo9JDOIkdIt79+6tHj16pMvhJC5iwPTHLgdE4xZWrlyp8ubN68gv5TGFiotU3GSaafDTQNa6devMZJ5HEQLJRwzPH6ktK2NVh5jNjuOdqYfVnsfBoW4amd3HIJJu3rzp44iUJ2AoiQFGWL9+fVW9enWVNWtWH2O1G7aps33EcP36dYvEcuXKpWXYy+O+xo4dq6/DeHPkyGHV36hRI8vxKuSQGKMmMUgPit44WYlh09JNqs2Ejc4j5qDaFWJiwDSidevW2ogKFCigWzlUxFClShV18eJFLffevXuqR48eKlWqVLrer776Sl+PixgkE/ZniHHbieHMmTMqQ4YM+nr37t19RiW452XLllnkIfISEpMYEoKat8p4ghiw0enYsWMKRoU9C7Nnz1ZlypTRBgRDw25FCaEiBn8bnN577z1dd4kSJaTaOKcSkikuYmjRooWW265dOykS8pjEEHJIU5xATxCDPGH9xXXr1lV4mkpIamLAtMB8sssUJrEjBpmqYESC0UMoApynmIaYhyzzYonXTG/VqlUoqqSMFICAp4kB8+/x48erhw8f+jRFUhMDKoPfQ4hKnJ6JIQbsaRB5BQsW9LmfxPwYOHCglivy/cUgJoboQMATxICnM1YBunTpotDRZ8yYoTZs2KDu3Lnj2orJQQwtW7bUBrd8+XJLj8QQA5ZPxWBr1Kjhel8JSdy+fbsaM2aMz5E5c2arrt/97nc+6VipYYgOBJKVGLau2qbenRLrODrPOKr2hdj5GFfzJQcx1KpVSxtyKEYMeCFMiAEviiVloI8hKdFNGbKTjxhCjIf59PW3XOmvSpMYFi5c6JotkH0M/pyPEGjun4DPAcHU2b5cKUr4cz5i9CPEkNRDehKDtEb0xlFJDJMmTdJGhmG0W8Br22KI/jY4+SMG7KaUsvBzSDCJoXLlypLsE/sjBmTCa+Uid8mSJT7lQvmDxBBKNFOmrKgkBvyTFDEwvJFprligGVesWOGzF8EfMfTr18/R6niyY4uyyMfoRALenJR0xKdOnZJLOo6LGAYPHqzLFypUSJ0+fVqXkxO8DzJnzhz5maBYiAFboxmiE4GoJAYYKP6xixgp/rHLmjVr1IIFCxSG+LJcJ9f9EQOWDdu0aaOwRXnVqlVq3LhxChuppBzOHzx44NOzzJ2NMEA4Sx8//tnBEhcx4D9AYc+GyM+YMaNVHkS2ceNGy1Eoo4rEGPWtW7cUdo0yRC8CUUkMaO4RI0ZoAxNDkxgGjyVB+e2PGOS6W4wnuts/iDF9F1LONMK4iAF6HzhwwMd/ITLsMTZDMRCBhCLgCWLA1uRgA6YP+J8HWbJk0QSQNm1ahdUETDVMA54/f74WLy9RIR9eVMqTJ48uD+PMnTu36tSpU5xPXOzClOE6ypjEgDcjxcj9OSix9RpvVdrrRjnIxZTj8uXLWmeeEIFgEUixxBDsjfrLD4I4e/asOnjwoMKrz/EFGOWWLVvUtWvXdNYff/zRKh+sMeIfy8pSphYW5MlPP/2kdu7cqY4ePep330aQIpmdCKioJwb2ASJABJwIkBicmDCFCEQ9AiSGqO8CBIAIOBEgMTgxYQoRiHoESAxR3wUIABFwIkBicGLCFCIQ9QiQGKK+CxAAIuBEgMTgxIQpRCDqESAxRH0XIABEwIkAicGJCVOIQNQjQGKI+i5AAIiAEwESgxMTphCBqEeAxBD1XYAAEAEnAiQGJyZMIQJRjwCJIeq7AAEgAk4ESAxOTJhCBKIeARJD1HcBAkAEnAiQGJyYMIUIRD0CJIao7wIEgAg4ESAxODFhChGIegRIDFHfBQgAEXAiQGJwYsIUIhD1CJAYor4LEAAi4ESAxODEhClEIOoRIDFEfRcIHwCrV69W+CoXjmfPniVYEXzJ64cfflC3b9/2kXHp0iUr/cmTJz7p/BE/AimWGPCNR3zgFR9xzZYtm/WRWpy/9tprCh+pxWfs9+/fHz8CzBE2BMqWLas/x2d+2DdYhZo3b27JmTx5si6KDwDLx4mvX7+u03kSGAIplhiOHz+uO5V869EtrlChguvHZQODJ3G50NnxFewTJ04kTlASlI4E3UJBDBhpZM2a1eoLhw8f1kht27bNSitdurRO40ngCHiGGCpWrKhw4KOuqVOn9iENjCi+/fbbwFEJQc41a9boj87OmTMnBBJDJyJSdAsFMfzzn/+02jpHjhwK3yGVMGTIECsdH/9lCB4BTxBDuXLlfO78ypUravTo0XooiZFEpUqVfPIk9Y8JEyZocoo0YogU3UJBDPJVcvuXwWvWrGnhv3z58qRuak/K9yQxSEstXrxYG+eLL76o7t+/L5eSPI4U43O70UjRLRTE0KJFC6uNJ02apG/V9C+YXyXXGXgSLwKeJgYMLbNnz67JYdeuXWru3LkKw0s4J2/duqXOnj2rYCiNGzdWGHnAkXXmzBkf4LZv367+9Kc/6Txt2rRRI0eOVN99951PPvyAZxzyq1WrpuutXLmylYZ0HOfOnXOUQ8KyZctUr169rLJwonbo0EGNGjVKXbhwwTW/mbh161Y1fPhw1bZtW1W+fHlVv359NWDAALV27Vrt8U+MbvD6YxTWqlUrVaZMGdWoUSPVp08fFcgTedOmTap///7qjTfesKZ7wG/RokUK83/xCwXjfJw5c6bq2LGjdWTOnNmS8etf/1qn/fa3v9VyJd+///1vEy6ex4OAp4kB916sWDHdSfbt22cZjnTGFStWaD+ApGFlQzrpf//7X9W7d29dXvJInCFDBvX555/7QHzx4kW/+aUclunMgDINGzb0Ww6d3/S4m2XhcX/77bf9lkWdIAoYRkJ0Q10gUzFAuQczrlOnjoNMUQ449ujRI07dRI5gbt6bv3MYu5QLND5//rw/cUx3QSD5iOH5I7VlZazqELPZcbwz9bDa89hFuziSzFUJu49BimF923RE4omJJ6q9M4E86tatq9KlS6dGjBghxdVbb72l86ZJk0Zh3tqpUyeFlQ5TBua5EmCoeFqXKFFC5ylVqpSVhnQce/fulezq7t27qlChQjpvpkyZFAwNT+TChQvrdNQ3e/ZsXQ4nMHYQmeiCe8VTGHrDEYv7wTWMXp4+faqC1Q11YIgu8hGXLFnSWg6GTFkORDqWjh8+fKj1w2jNTna4T4zIzJGCyAYJBxp27typ4Ldp2rSppRtGC/gtR65cuaz0P/zhD1YaiC0Y4glUDy/nS1Zi2LR0k2ozYaPziDmodoWYGNAxW7durTt1gQIFrHa0EwOeaDAaBEwtHjx4YJ3Hxsbqsr/4xS8UhsNmiImJUalSpbLywCOOsmYIdB7fvXt3XQ8MCZtyJECvMWPG6OtZsmRRly9flsvqvffe09cKFizoQzjIBFkY8WDPhxkC1Q3TLBAVjDdjxoxq4cKFphgFcsa0Qowb0wUJmCpIOgjETmr4bZJ2MMQgdWC/Cuow/QsgJ9SHtqF/QZAKPvYEMeBpdezYMcsA9uzZY3VCs8Oi82B3HYJJDBhi+9txV7VqVd2x//znP7si26BBA51n7NixPnkCMb5Dhw5pcsEI4969ez4y5Ef79u11PWKcWKYTYoKBBbMcG4huqNscMWFe7xbgZ8FoChhj5IUAcgURCzEsWLDAragynY/BEgNIE0SJOo4cOaLlw9eCNLQ/Q8IR8AQxSAf0F2OaIGvcJjHYn2ICIzpd2rRprQ4GP8KdO3fkkk+8dOlS3flhvGYIxPimTp2qyw8dOtQyKBiV/TDrGThwoFUNRixyv++8845ZdbzngegGITIkFwzseslvECx0AVEhbfPmzVo3TPP8ka9JDMEO9b/++murjpw5c+q2hc6DBw+20uHEZUg4Ap4mBgzxx48f7zP3NYlh9+7drshhVUKM7le/+pVrHiQePHhQ58MIwwyBGF+3bt10eakvvlgI6P3339dlg90nEYhu2AsSny5u10+fPu3jl8DKiL+QGGJAu6J+jGrMUL16dSt95cqVZjLPg0TAE8SAJxrm0l26dFF4os6YMUNt2LDB9UlvEoO5hdbEbceOHdoo0NH8BczhxTh++ctf+mQLxPhq1aqly4uc+GKZx8sGHuTH8DmYEIhusqU4Pn3s17FX5Pe//72+L3+jMugbLDFgZQH7FnCIwxbTF0lDLCM94IPf/paGg8ErGvMmKzFsXbVNvTsl1nF0nnFU7Qux89FfYwZCDAcOHNAd2z4SMOVifi2GYd+TH4jxNWnSRJcHmaHjx3c8evTIUsEsiy3OwYRAdMMLaHJvL7/8crx6Qe+rV69aaoCgpaz4dtz0C5YYTLxFfnyxP/J304dpPyOQfMTwc50hOQtkudKtokCIAcua0uHg7fcX1q1bp/O1bNnSJ5tpfLNmzfK5Jj/w9Jd6Jk6cKMkBxX379tVlzeXSQAoHohscoeLcxB6GYIK5koIlQ38hWGLA0i72nvzxj3+07j1v3rzWb6ThqFevnpWO1ShJQ1syBI8AicEPZuJ4g+HCl+AWsDNRDPvjjz/2yWIaH3ZJugV466U8nHTB/N8ADNGlLEYrsuTqVo89LRDdUKZo0aK6DuzKDDRgN6TohtUJc3+DKSNYYpCyn3zyiSUfe0rMAAxRr31p2czD88AQIDH4wcl8msPBZTc8eMVlPovlQnPJDCLN9zRq167tWgs2HOXJk0cb0aBBg3w87FIIsrG0aQas0cO5KgaILdtu3n8s337zzTdm0YB0QwFssRb58KH8+OOPPnLwA8uMS5Ys8UnHfcmr0CgP/48dP7zPUKRIES0/mFWJ119/3Sr317/+VdeL/R2oC/stIJshcQiQGPzgh12T5nsW2ImI/60AxySWCrHpSYymc+fODinwzstQHPmwmxEjBDzpkV8MxXy6Ih8ckvPmzVN4PwObhLp27arwAhhGBfYRxV/+8hetA8piNyJ8Fdichf0OeCcB6TVq1PDRL1DdYKzmLk/cM5YD8f7F+vXr1aeffqp3eIIIzYC9H6hbjipVqqhp06ZZT3NgIE93uR7oPoYbN25YG6OArbmBSUZfaCeGxCNAYogDQxgA/peDdF63GC8GidPNLspcUrSXPXnypM6OJT2TROx55bd99QF7M/A0DqSsfToUqG7YOAXno+jgL7aTD5yk8p+V/JUx0wMlBoxOUA4vmZlB3hcJ1t9iyuD5zwh4ghjwNAo0BOJ8NGVhuQtvXpojBHRMOCXxz0DkyW+WkXMMabHl2m64GO5u2bJFslkx3vxEZ8fowDQYvC+B/zWAEYS/AMLA/5uQqY2Ux45EbLOGk1Q2eImMYHTDpiU4EbGZSGQjfumllyydMeWwbwlHPagT/gxgZZbD8jKmatixivvFb/toSPS0x7LigWmXBNQjPiG3N14lH+PAEUixxBD4LYYmJzofNj7BgDGcDSZg5ySWzfDUxvw7rgCDhT8BT2p44YMJeOqinr///e+WPyAu0hK5weiGMnhDEy8x4T0KO9mITLcYoyroBqJ184W4lXFLwzQIpIoNWGbAPWMKxRAaBEgMocGRUoiApxAgMXiqOXkzRCA0CJAYQoMjpRABTyFAYvBUc/JmiEBoECAxhAZHSiECnkKAxOCp5uTNEIHQIEBiCA2OlEIEPIUAicFTzcmbIQKhQYDEEBocKYUIeAoBEoOnmpM3QwRCgwCJITQ4UgoR8BQCJAZPNSdvhgiEBgESQ2hwpBQi4CkESAyeak7eDBEIDQIkhtDgSClEwFMIkBg81Zy8GSIQGgRIDKHBkVKIgKcQIDF4qjl5M0QgNAiQGEKDI6UQAU8hQGLwVHPyZohAaBAgMYQGR0ohAp5CgMTgqebkzRCB0CBAYggNjpRCBDyFAIkhiZvzq6++UvgU/NSpU5O4JoonAqFDIMUSw/fff299ySh//vzWZ+QyZcqkcI6vOTVr1kx9+OGHav/+/aFDKoGS5PNu+OISAxFIKQikWGI4fvy4z2fPzE+gmef4KCu++ByuQGIIF/KsNzEIeIYYKlasqHDky5fP+hqySQ74MC0++RaOQGIIB+qsM7EIeIIY8El1M+C7hqNHj1bp06fXowp89DUcgcQQDtRZZ2IR8CQxCCiLFy/WxIA5/v379+VSssWRSAwLFixQjx8/TjYMWFHKQ8DTxICvMWfPnl2TA75UjYAvJo8cOVK1bdtWYbRRtmxZ1apVKzV+/Ph4v0aN8vja9fTp01XPnj1V7dq1FfwYHTt2VDExMerChQs+vSAuYoAcOEkhB8epU6d8yiZGz5UrVyp8Mv7111+37rFly5aWzkOHDrXwgIMWX9Z2C8uWLVO9evVS1apVs5y5HTp0UKNGjXLcm1tZpnkDAU8TA5qoWLFimhj27dunevTo4fBBmP6InDlzqk2bNvltXRhc3rx5tUyzLM4xfQFpSPBHDE+ePFF16tTRcurVq6eQJiGheuKz9s2bN9dy7frJb9wDHLhmwCfuGzZs6Lds5syZ1eTJk80iPPcoAslHDM8fqS0rY1WHmM2O452ph9WeIEe25qqE3ccgbXXz5k0fErh9+7bq16+f7vjp0qVTpUqVso40adLo9AIFCqgHDx6IGB2PHTtW54GB5ciRQ9WvX181atTIcnqK0a1bt06X8UcM3bt317JeeeUVdevWLV0GJwnVE0930SNt2rSqTZs2qn379pauko74X//6l099d+/eVYUKFdJlsfwL4sK9FS5cWKej7OzZs33K8of3EEhWYti0dJNqM2Gj84g5qHaFmBgwjWjdurXu0DB2hGvXrimcT5s2zecJjVWLokWL6vzYlGSGM2fOqAwZMujrMOxHjx7pLKgPQ3CQhxnciGHGjBlaDsgFsu0hIXpi34YYP0Yu//jHP7TY8+fPW/ct1zHtMYNJVBg1XLp0SV9++vSpGjNmjJadJUsWdfnyZX2dJ95DwBPEULx4cXXs2DGFTU/Ys4AnWpkyZXRHhjGYhg4jdgtffPGFLtOtWzefLC1atNDX2rVr53Mtrh92Yti+fbvCkxw6Id6xY4ff4sHq+dlnn2kd4buwh1mzZunrb7/9tr586NAhlSpVKutaiRIl1L179/Q18wQjDyGWhQsXmpd47jEEPEEM0ge66BgAAAemSURBVFn9xXXr1lVuRgbn3+7du9X8+fPVpEmT1MyZM3XHx1PTDFmzZrWuwYDcnvBmXvPcJIazZ88q+DBEz7lz55pZ/Z4HqicchiJ7zpw5DnkgJbn+xhtv6OvYri3pcE5iGuV2LF26VOcbOHCgLh/fCVZAPvroI4us4f/45JNP1OrVqzUB4XfJkiUtp258sng9eRDwNDFgmI6VhocPH/qgiWEyRgTy5BajMGNsrZaA/HKtYMGCkhxQLMSA8vZRDAw1rhCsniAD0XP48OEO0SNGjNDXMc2SACykXKAxRg+BBjgs3eQCf7QRrmFExhA5CHiCGDD37927t7U8hycZ5vAbNmxQ8NDbw8GDB5U8/dEhMQKA061y5co+T3OTGLZt26Y7do0aNewi4/xtEoPdOPCUNP0UpqCE6ImplNQBP4p93wbuSa6bxFGrVi2dLtfji/v372+q6/ccIzWsDOXKlUstWbJEgbzgEC1SpIiuEw7gI0eO+JXBC8mPQLISw9ZV29S7U2IdR+cZR9W+EDsf3aDEyMFcasQSIXwTEjC3FoMwicF06pnpUi6u2E4MmPvD0y/1DB482FE8oXpCUOnSpbXs8uXLqxUrVljLr9izIXVii/jVq1d1vU2aNNHXQKpwVMZ3+CM0LdQ4gQ/jhx9+MFL+d4pVIxCC2zTPkZkJyYpA8hFDiG8rkOVKe5XY8SfGUbVqVcfT2h8xYOQh5TDaCCaYxPDBBx9YRfFkz5gxoyUTS6bfffedj8iE6gkhWM34zW9+o/UVvSXGhi+8Cm4GPP3l+sSJE81LPI9SBKKKGPC0FgNwW4v3RwzoG3ilW8piSBxoEGLAlmzzyThu3Dgtr3r16j7XEqMnlhZNX4PojPqxE/L69esO1U0iwp4Qc6OVIzMTogKBqCKGIUOGaGPs27evo4GxTVoMCQZtBgz55Rp8EtiubA+Y09tXA0xiMPPDU4+t2CITS4kSEqMnjB8yUS+cflu2bLFGJP62P6NOkEWePHm0LoMGDfIhKtELw35MCxi8j0BUEcPatWt158eQGkuU6Ozr169X2JsgRooYTknMgSXAsLBfQvJgKgBHJ+bwGzdutDYAyahi69atUswyUJRx+0cte/fu1fsHMO//6aefrHIJ1RNLjKIfnKkff/yx9Q4HliaxexH6YxkWI4Rnz55pHXGyfPlyXRYy4JCcN2+ewsrJokWLVNeuXa17gA+DIwof6Dz5I6qIAS3YoEEDHwMQQ0KMbcDYnixpjRs39mn0AwcO+Lx7Ifnssbn05m/EIILNHYdwEEpIqJ5wONr1cftt1iV1DhgwQBOVWxlJM4lPyjL2FgKeIIYqVaoE3Cp4JwFvQkonR4zlzpo1a6oTJ05Yo4RXX33Vup47d26HXPgh8CakOfQWWfgnMZhymNuFhRheeuklhywk4P0NlBMZ2HCFkFA9jx49ao0KMAIB0WEpEESFdyhM0kN9sbGxDp3wBipWXjDCEZ0QY8Tx5ptvWiMIRyEmeA6BFEsMiW0JGB6M8OTJkwoOO3tAOt7GjCtg6L9z504FY3TbMxFX2UCvhUJPsy7xQcDY7e91mPkwdYI/Ae+Q4AUrhuhCIGqJwavNDL/IqlWrXJ2HuGf4VWQkMGzYMK/CwPtKJAIkhkQCGGnF5UUn/POYL7/8Up07d86aluB/TGCaY74hunnz5khTn/pECAIkhghpiFCogTdLZTQQX/zWW2+FokrK8CgCJAYPNSyWILHsGNfKBN7uxBSCS44eavgkuBUSQxKAGm6R2GEJpyF2aGL60KdPH/Xpp59aW6Hd/jNVuPVl/ZGHAIkh8tqEGhGBsCNAYgh7E1ABIhB5CJAYIq9NqBERCDsCJIawNwEVIAKRhwCJIfLahBoRgbAjQGIIexNQASIQeQiQGCKvTagREQg7AiSGsDcBFSACkYcAiSHy2oQaEYGwI0BiCHsTUAEiEHkIkBgir02oEREIOwIkhrA3ARUgApGHAIkh8tqEGhGBsCNAYgh7E1ABIhB5CJAYIq9NqBERCDsCJIawNwEVIAKRhwCJIfLahBoRgbAjQGIIexNQASIQeQiQGCKvTagREQg7AiSGsDcBFSACkYcAiSHy2oQaEYGwI0BiCHsTUAEiEHkIkBgir02oEREIOwIkhrA3ARUgApGHAIkh8tqEGhGBsCNAYgh7E1ABIhB5CJAYIq9NqBERCDsCJIawNwEVIAKRhwCJIfLahBoRgbAjQGIIexNQASIQeQiQGCKvTagREQg7AiSGsDcBFSACkYcAiSHy2oQaEYGwI0BiCHsTUAEiEHkIkBgir02oEREIOwIkhrA3ARUgApGHAIkh8tqEGhGBsCNAYgh7E1ABIhB5CJAYIq9NqBERCDsCJIawNwEVIAKRhwCJIfLahBoRgbAjQGIIexNQASIQeQiQGCKvTagREQg7AiSGsDcBFSACkYcAiSHy2oQaEYGwI0BiCHsTUAEiEHkIkBgir02oEREIOwIkhrA3ARUgApGHAIkh8tqEGhGBsCNAYgh7E1ABIhB5CJAYIq9NqBERCDsCJIawNwEVIAKRhwCJIfLahBoRgbAjQGIIexNQASIQeQiQGCKvTagREQg7AiSGsDcBFSACkYfA/wH3JYCn56W4PgAAAABJRU5ErkJggg==;" parent="1" vertex="1">
                    <mxGeometry x="480.83" y="-400" width="109.17" height="100" as="geometry"/>
                </mxCell>
            </root>
        </mxGraphModel>
    </diagram>
</mxfile>